<?xml version="1.0" encoding="UTF-8" standalone="no"?>
<!-- Created with Inkscape (http://www.inkscape.org/) -->

<svg
   width="1015.3476"
   height="360.38788"
   viewBox="0 0 1015.3476 360.38788"
   version="1.1"
   id="svg1"
   xml:space="preserve"
   xmlns="http://www.w3.org/2000/svg"
   xmlns:svg="http://www.w3.org/2000/svg"><defs
     id="defs1" /><g
     id="g2"
     transform="translate(-38.932339,-113.8562)"><g
       id="text5"
       style="font-weight:500;font-size:253.333px;font-family:Inter;-inkscape-font-specification:'Inter, Medium';fill:#812ce5;stroke:#ffffff;stroke-width:3.5;stroke-linecap:butt;stroke-linejoin:miter;stroke-dasharray:none;stroke-dashoffset:0;stroke-opacity:1;paint-order:normal"
       aria-label="pyHaiCS"
       transform="translate(-13.851232,13.851232)"><path
         style="fill:#cc2f90;stroke:#ffffff;stroke-width:3.5;stroke-linecap:butt;stroke-linejoin:miter;stroke-dasharray:none;stroke-dashoffset:0;stroke-opacity:1;paint-order:normal"
         d="M 54.53357,457.65326 V 267.65352 h 26.471319 v 22.51299 h 2.226559 q 2.350257,-4.20573 6.679679,-9.89582 4.453119,-5.8138 12.369773,-10.01952 7.91666,-4.32942 20.90492,-4.32942 16.5755,0 29.56376,8.41145 13.11197,8.41144 20.65753,24.36845 7.54556,15.95701 7.54556,38.47 0,22.2656 -7.42186,38.3463 -7.42187,16.08071 -20.53383,24.61586 -12.98826,8.53514 -29.81116,8.53514 -12.61717,0 -20.53383,-4.20572 -7.916651,-4.32942 -12.493468,-10.01952 -4.453119,-5.6901 -6.927074,-10.14321 h -1.484373 v 73.35276 z m 62.59106,-72.11579 q 11.87499,0 19.79164,-6.43228 8.04036,-6.43228 12.12238,-17.44138 4.08203,-11.0091 4.08203,-24.73955 0,-13.60676 -4.08203,-24.36846 -3.95833,-10.8854 -11.99868,-17.19399 -7.91666,-6.30858 -19.91534,-6.30858 -17.565079,0 -26.718712,13.23566 -9.153634,13.11196 -9.153634,34.63537 0,21.6471 9.277331,35.13016 9.277332,13.48305 26.595015,13.48305 z m 87.33062,70.13663 6.67968,-22.1419 3.09244,0.74219 q 10.51431,2.84504 17.81248,-0.74219 7.42186,-3.46354 11.25649,-16.82289 l 2.96875,-10.14322 -52.57155,-138.91257 h 29.44007 l 27.3372,78.54807 q 3.09245,9.15363 5.4427,18.05987 2.35026,8.90624 4.57682,17.81248 2.35026,-8.90624 4.82421,-17.81248 2.47396,-9.02994 5.6901,-18.05987 l 27.83199,-78.54807 h 29.19267 l -60.1171,157.46723 q -6.30859,16.5755 -17.07029,24.98695 -10.63801,8.53514 -27.33721,8.53514 -6.43228,0 -11.50389,-0.98958 -4.94791,-0.86588 -7.54556,-1.97916 z"
         id="path6" /><path
         d="M 354.12953,405.9476 V 221.63795 h 28.20309 v 77.92959 h 91.28894 v -77.92959 h 28.32679 V 405.9476 h -28.32679 v -82.1353 h -91.28894 v 82.1353 z m 225.25358,3.09245 c -8.82377,0 -16.78166,-1.60807 -23.87367,-4.82422 -7.00954,-3.29861 -12.57594,-8.08159 -16.6992,-14.34894 -4.12325,-6.26735 -6.18488,-13.93661 -6.18488,-23.00778 0,-7.83419 1.5256,-14.26647 4.57681,-19.29685 3.05121,-5.11284 7.13324,-9.1124 12.24608,-11.99868 5.11284,-2.96875 10.80294,-5.19531 17.07029,-6.67968 6.34982,-1.48437 12.7821,-2.59765 19.29685,-3.33984 12.20485,-1.40191 21.06985,-2.59765 26.59502,-3.58723 5.52517,-1.07205 8.28775,-4.04079 8.28775,-8.90624 v -0.74219 c 0,-7.66926 -2.26779,-13.60675 -6.80338,-17.81247 -4.45312,-4.28819 -11.0091,-6.43228 -19.66794,-6.43228 -9.07117,0 -16.20441,1.97916 -21.39971,5.93749 -5.19531,3.95833 -8.74131,8.28775 -10.63801,12.98826 l -25.60543,-6.67968 c 3.13367,-8.24651 7.62802,-14.88496 13.48305,-19.91534 5.85503,-5.03037 12.53471,-8.70007 20.03904,-11.00909 7.58679,-2.30903 15.50345,-3.46354 23.74996,-3.46354 5.52517,0 11.42143,0.65972 17.68878,1.97916 6.26735,1.31945 12.16361,3.71094 17.68878,7.17447 5.52517,3.38107 10.01952,8.24652 13.48306,14.59634 3.46353,6.34981 5.1953,14.51386 5.1953,24.49215 v 91.78373 h -26.34762 v -18.92575 h -1.36068 c -2.72135,5.4427 -7.42186,10.47307 -14.10154,15.09112 -6.59721,4.61805 -15.50345,6.92708 -26.71871,6.92708 z m 6.06119,-21.89451 c 7.3394,0 13.64798,-1.44314 18.92575,-4.32942 5.27777,-2.96875 9.31857,-6.80338 12.12238,-11.50389 2.88628,-4.70051 4.32942,-9.77212 4.32942,-15.21482 v -17.68878 c -1.31944,1.31944 -4.16449,2.47395 -8.53514,3.46354 -4.28819,0.90711 -8.82377,1.69053 -13.60675,2.35025 -4.78298,0.65973 -8.57638,1.15452 -11.3802,1.48438 -7.66926,1.07205 -14.26647,3.17491 -19.79164,6.30858 -5.4427,3.05121 -8.16405,8.12282 -8.16405,15.21483 0,6.59721 2.43272,11.58635 7.29817,14.96742 4.94791,3.29861 11.21526,4.94791 18.80206,4.94791 z m 99.08195,18.80206 V 267.65352 h 27.2135 V 405.9476 Z m 142.49977,2.47396 c -15.99825,0 -30.26472,-3.7934 -42.79942,-11.3802 -12.45224,-7.58679 -22.2656,-18.43096 -29.44007,-32.53251 -7.17447,-14.10154 -10.7617,-30.96566 -10.7617,-50.59237 0,-19.70918 3.58723,-36.61454 10.7617,-50.71608 7.25693,-14.18401 17.11152,-25.06942 29.56376,-32.65621 12.53471,-7.58679 26.75995,-11.38019 42.67573,-11.38019 12.94703,0 24.78078,2.47395 35.50125,7.42186 10.72047,4.86545 19.62671,11.95745 26.71872,21.27602 7.092,9.23609 11.66882,20.36889 13.73045,33.39839 h -28.32679 c -2.30903,-11.71005 -7.91666,-20.69876 -16.82289,-26.96611 -8.82377,-6.26735 -19.00822,-9.40103 -30.55335,-9.40103 -10.55554,0 -19.9978,2.68012 -28.32678,8.04035 -8.32898,5.27777 -14.92619,13.07073 -19.79164,23.37888 -4.78298,10.22568 -7.17447,22.76039 -7.17447,37.60412 0,14.92619 2.39149,27.50213 7.17447,37.72781 4.86545,10.22568 11.46266,17.97741 19.79164,23.25518 8.32898,5.1953 17.77124,7.79295 28.32678,7.79295 11.54513,0 21.72958,-3.13367 30.55335,-9.40102 8.90623,-6.34982 14.51386,-15.37976 16.82289,-27.08981 h 28.45048 c -1.89669,12.20484 -6.30858,22.96654 -13.23565,32.28511 -6.84461,9.31857 -15.66839,16.65797 -26.47132,22.0182 -10.72047,5.27777 -22.84285,7.91666 -36.36714,7.91666 z m 171.07397,0.61849 c -20.69875,0 -37.19179,-4.82421 -49.4791,-14.47264 -12.28731,-9.73089 -18.84329,-23.00779 -19.66794,-39.83068 h 28.32678 c 0.82465,10.06075 5.15408,17.52385 12.98827,22.3893 7.83419,4.78298 17.07028,7.17447 27.70829,7.17447 11.71011,0 21.39971,-2.72135 29.06901,-8.16406 7.6693,-5.4427 11.5039,-12.61717 11.5039,-21.52341 0,-7.99912 -3.3811,-13.93661 -10.1433,-17.81247 -6.6797,-3.95833 -14.9674,-7.25693 -24.8632,-9.89582 l -21.52342,-5.93749 c -15.09112,-4.04079 -26.88364,-10.01952 -35.37755,-17.93618 -8.41145,-7.91665 -12.61717,-18.18357 -12.61717,-30.80074 0,-10.63801 2.84505,-19.91534 8.53514,-27.83199 5.77256,-7.99912 13.56552,-14.18401 23.37888,-18.55466 9.89582,-4.45312 21.02862,-6.67968 33.39839,-6.67968 12.61713,0 23.70873,2.22656 33.27473,6.67968 9.6484,4.37065 17.194,10.43184 22.6367,18.18357 5.5251,7.66926 8.4114,16.36933 8.6588,26.10022 h -27.4609 c -0.9071,-8.41145 -4.8242,-14.92619 -11.7513,-19.54424 -6.8446,-4.61805 -15.5034,-6.92708 -25.97652,-6.92708 -11.1328,0 -19.99781,2.55642 -26.59502,7.66926 -6.59721,5.03038 -9.89582,11.46266 -9.89582,19.29685 0,5.85503 1.773,10.59677 5.31901,14.22524 3.546,3.54601 7.87542,6.39106 12.98826,8.53515 5.19531,2.06163 10.14322,3.71093 14.84373,4.94791 l 17.93616,4.70051 c 5.8551,1.48437 11.875,3.50477 18.0599,6.06119 6.2673,2.47396 12.0399,5.73134 17.3177,9.77213 5.2777,3.95833 9.5247,8.90624 12.7408,14.84373 3.2987,5.85503 4.948,12.94703 4.948,21.27601 0,10.39061 -2.6801,19.66794 -8.0404,27.83199 -5.3603,8.16405 -13.1532,14.59634 -23.3789,19.29685 -10.1432,4.61805 -22.4305,6.92708 -36.86191,6.92708 z"
         id="path7"
         style="stroke:#ffffff;stroke-width:3.5;stroke-linecap:butt;stroke-linejoin:miter;stroke-dasharray:none;stroke-dashoffset:0;stroke-opacity:1;paint-order:normal" /></g><path
       class="st0"
       d="m 711.43698,217.70959 c -5.2452,10.58647 -12.3341,20.63829 -14.3636,31.22474 l 7.3318,-0.52278 c 11.5767,-27.99296 22.0101,-46.81335 44.6346,-70.35072 16.9791,-17.63222 35.4018,-31.66434 59.0268,-42.80927 12.5771,-5.94076 28.6844,-12.43998 43.1768,-14.07965 3.9589,-0.45148 7.975,-0.58219 12.0911,-0.28514 -44.8775,8.54284 -80.4079,28.32564 -108.7922,57.98202 -11.591,12.09542 -21.667,25.53345 -30.9283,39.69627 l 17.0649,2.59018 -7.1033,-2.93472 25.4116,-3.36249 c -9.4329,-2.76841 -18.7514,-1.84165 -21.7385,-4.82392 26.1548,-0.98618 47.6502,-5.67939 62.7428,-14.79254 -5.6168,-0.65349 -12.0912,-1.23568 -15.4642,-2.57831 25.2829,-7.10516 39.9039,-19.87783 58.4551,-31.21284 -24.1109,4.20606 -46.421,3.51694 -52.8811,-0.29705 42.5479,2.62583 70.0318,-7.15268 79.4503,-31.80693 0.8147,-2.66147 1.0434,-5.34672 0.5289,-8.0557 -3.3015,-17.62037 -40.8186,-23.573024 -53.0241,-9.12503 -2.444,2.88722 -5.8884,5.5368 -8.7325,8.8874 l 11.6195,-18.11939 c -31.2713,8.78047 -33.8439,18.46395 -50.0227,47.63317 1.2863,-8.87552 4.2448,-16.91933 8.0894,-24.51163 -39.0749,12.53502 -52.0951,44.09247 -54.1817,70.93291 -1.1291,-9.36269 0.9575,-21.12543 4.988,-34.33772 -11.4052,9.50525 -19.1659,20.66204 -16.3932,36.58332 l -5.2167,-1.93668 2.7441,8.54282 -7.8035,-3.07731 z"
       id="path1"
       style="fill:#812ce5;fill-opacity:1;stroke:#ffffff;stroke-width:3.5;stroke-linecap:butt;stroke-linejoin:miter;stroke-dasharray:none;stroke-dashoffset:0;stroke-opacity:1;paint-order:normal"
       transform="translate(-13.851232,13.851232)" /></g><style
     type="text/css"
     id="style1">.st0{fill-rule:evenodd;clip-rule:evenodd;}</style></svg>
